<svg width="446" height="254" viewBox="0 0 446 254" fill="none" xmlns="http://www.w3.org/2000/svg">
<path fill-rule="evenodd" clip-rule="evenodd" d="M130.556 182.094H315.268C318.876 198.2 333.263 210.236 350.462 210.236C367.661 210.236 382.048 198.2 385.656 182.094H413.671C415.096 183.541 417.079 184.439 419.271 184.439H421.957C426.942 184.439 430.918 180.288 430.701 175.311L429.833 155.201C429.717 152.577 427.584 150.495 424.973 150.436C424.956 148.589 424.94 146.813 424.94 145.158C424.94 131.087 400.896 93.565 362.003 89.1679C326.679 85.1742 320.846 81.906 292.392 65.9657C289.517 64.3555 286.412 62.6159 283.022 60.7332C246.077 40.2134 195.984 43.1448 195.984 43.1448H97.709C72.3854 43.1448 73.3486 44.762 75.0751 47.6607C75.4277 48.2526 75.8121 48.898 76.0109 49.5939C76.3091 50.6371 76.0388 51.9075 75.3062 53.4631C59.9359 59.6787 39.9457 82.5482 35.8408 90.5155C33.4791 90.9383 31.2483 91.195 29.2562 91.4242L29.2559 91.4242L29.2555 91.4243L29.2552 91.4243L29.2548 91.4243L29.2547 91.4243L29.2546 91.4244C28.1439 91.5522 27.1075 91.6714 26.164 91.8062C17.9539 92.9787 16.1946 105.877 14.7285 125.347C14.1656 132.823 14.8561 139.293 16.2524 145.158H14.1848C11.235 145.158 9.07689 147.937 9.80407 150.798C11.2995 156.672 14.2727 165.976 19.3571 172.924C21.8494 176.33 25.3974 178.869 29.5083 179.807C31.4142 180.238 33.2082 180.273 34.7009 179.66C40.1405 182.561 45.5163 182.094 45.5163 182.094H60.1672C63.7752 198.2 78.1624 210.236 95.3615 210.236C112.561 210.236 126.948 198.2 130.556 182.094Z" fill="#BABABA"/>
<mask id="mask0_13444_69882" style="mask-type:alpha" maskUnits="userSpaceOnUse" x="17" y="203" width="422" height="9">
<rect x="17.2148" y="203.762" width="420.787" height="7.55259" fill="url(#paint0_linear_13444_69882)"/>
</mask>
<g mask="url(#mask0_13444_69882)">
<rect x="21.5303" y="203.762" width="420.787" height="7.55259" fill="url(#paint1_linear_13444_69882)"/>
</g>
<defs>
<linearGradient id="paint0_linear_13444_69882" x1="17.2148" y1="211.314" x2="438.002" y2="211.315" gradientUnits="userSpaceOnUse">
<stop stop-color="#BABABA" stop-opacity="0"/>
<stop offset="0.1875" stop-color="#BABABA"/>
<stop offset="0.8125" stop-color="#BABABA"/>
<stop offset="1" stop-color="#BABABA" stop-opacity="0"/>
</linearGradient>
<linearGradient id="paint1_linear_13444_69882" x1="231.924" y1="203.762" x2="231.924" y2="211.315" gradientUnits="userSpaceOnUse">
<stop stop-color="#BABABA" stop-opacity="0"/>
<stop offset="0.255208" stop-color="#BABABA"/>
<stop offset="0.755208" stop-color="#BABABA"/>
<stop offset="1" stop-color="#BABABA" stop-opacity="0"/>
</linearGradient>
</defs>
</svg>
